<svg width="401" height="401" viewBox="0 0 401 401" fill="none" xmlns="http://www.w3.org/2000/svg">
<circle cx="200.5" cy="200.5" r="199.5" fill="#EAEAEA" stroke="#624237" stroke-width="2"/>
<path d="M163.921 172.63C149.921 172.93 135.821 173.23 122.621 167.93C118.721 165.93 102.321 161.13 103.821 156.33C113.921 131.63 130.921 109.83 152.321 93.8301C194.321 62.0301 256.121 53.1301 302.821 79.5301C355.721 114.33 349.021 191.23 289.721 214.53C279.121 218.23 267.221 220.83 256.021 218.93C252.121 216.43 252.621 209.83 249.921 206.13C245.921 197.73 240.121 190.13 232.621 184.63C208.621 166.03 174.321 180.73 162.221 206.33C147.521 234.13 149.421 272.83 172.321 295.63C189.121 313.13 224.921 312.03 236.521 289.43C240.421 281.63 242.121 271.53 235.921 264.43C230.721 257.03 215.921 247.73 209.421 257.93C209.021 259.23 207.521 261.53 206.421 259.43C195.721 241.43 213.221 219.13 233.021 227.53C288.321 251.43 275.321 322.43 217.621 333.23C153.321 345.13 106.421 304.43 94.9207 242.33C91.6207 225.23 91.8207 207.63 94.0207 190.43C94.1207 189.43 93.8207 188.73 92.9207 188.23C85.3207 183.63 78.6207 177.23 73.3207 170.03C70.1207 167.53 57.6207 138.13 68.1207 149.43C90.4207 175.73 132.521 187.33 163.921 172.63ZM221.721 109.43C213.421 110.93 204.621 109.53 196.621 107.03C194.521 106.93 196.721 109.83 197.321 110.53C203.721 117.63 214.821 113.73 221.721 109.43Z" fill="#624237"/>
</svg>
