<svg width="1479" height="1609" viewBox="0 0 1479 1609" fill="none" xmlns="http://www.w3.org/2000/svg">
<path d="M960 378L740 452L625 318L740 184L854 318L800 381L945 332C961 327 976 322 991 317L1007 313L740 0L468 318L519 378C489 368 458 358 427 350C310 319 187 302 60 302H0V362C0 489 16 612 48 730C80 851 128 965 190 1072C252 1180 328 1278 416 1366C503 1453 602 1529 710 1591L740 1609L769 1591C878 1529 976 1453 1064 1366C1151 1278 1227 1180 1289 1072C1351 965 1399 851 1431 730C1463 612 1479 489 1479 362V302H1419C1292 302 1169 319 1052 350C1021 358 990 368 960 378ZM838 1054C813 1096 779 1132 740 1160C700 1132 666 1096 641 1054C612 1005 595 948 595 887C595 856 599 827 607 800C615 772 626 745 641 719C657 694 675 670 697 650C698 648 699 647 701 645C666 623 628 605 591 587C571 609 554 633 539 658C518 692 502 729 492 769C481 807 475 847 475 887C475 970 498 1048 538 1115C580 1185 639 1243 710 1283L740 1299L769 1283C840 1243 899 1185 941 1115C981 1048 1004 970 1004 887C1004 847 998 807 987 769C977 729 961 692 940 658C920 623 895 592 866 564C861 560 857 555 852 551C925 516 1002 487 1082 466C1171 442 1263 427 1358 423C1354 518 1339 610 1315 699C1286 810 1242 915 1186 1012C1129 1110 1059 1200 979 1281C907 1353 826 1416 740 1470C653 1416 572 1353 500 1281C420 1200 350 1110 293 1012C237 915 193 810 164 699C140 610 125 518 121 423C216 427 308 442 397 466C477 487 554 516 627 551C683 579 737 606 782 650C804 670 822 694 838 719C853 745 864 772 872 800C880 827 884 856 884 887C884 948 867 1005 838 1054Z" fill="#FF6666"/>
</svg>
