<svg width="275" height="272" viewBox="0 0 275 272" fill="none" xmlns="http://www.w3.org/2000/svg">
<path d="M99.9207 108.63C85.9207 108.93 71.8207 109.23 58.6207 103.93C54.7207 101.93 38.3207 97.1301 39.8207 92.3301C49.9207 67.6301 66.9207 45.8301 88.3207 29.8301C130.321 -1.96989 192.121 -10.8699 238.821 15.5301C291.721 50.3301 285.021 127.23 225.721 150.53C215.121 154.23 203.221 156.83 192.021 154.93C188.121 152.43 188.621 145.83 185.921 142.13C181.921 133.73 176.121 126.13 168.621 120.63C144.621 102.03 110.321 116.73 98.2207 142.33C83.5207 170.13 85.4207 208.83 108.321 231.63C125.121 249.13 160.921 248.03 172.521 225.43C176.421 217.63 178.121 207.53 171.921 200.43C166.721 193.03 151.921 183.73 145.421 193.93C145.021 195.23 143.521 197.53 142.421 195.43C131.721 177.43 149.221 155.13 169.021 163.53C224.321 187.43 211.321 258.43 153.621 269.23C89.3207 281.13 42.4207 240.43 30.9207 178.33C27.6207 161.23 27.8207 143.63 30.0207 126.43C30.1207 125.43 29.8207 124.73 28.9207 124.23C21.3207 119.63 14.6207 113.23 9.3207 106.03C6.1207 103.53 -6.3793 74.1301 4.1207 85.4301C26.4207 111.73 68.5207 123.33 99.9207 108.63ZM157.721 45.4301C149.421 46.9301 140.621 45.5301 132.621 43.0301C130.521 42.9301 132.721 45.8301 133.321 46.5301C139.721 53.6301 150.821 49.7301 157.721 45.4301Z" fill="#624237"/>
</svg>
